<svg width="58" height="49" viewBox="0 0 58 49" fill="none" xmlns="http://www.w3.org/2000/svg">
<path d="M40.6 8.64706H46.4V49H11.6V8.64706H17.4V5.76471C17.4 4.23581 18.0111 2.76953 19.0988 1.68844C20.1865 0.607351 21.6617 0 23.2 0H34.8C36.3383 0 37.8135 0.607351 38.9012 1.68844C39.9889 2.76953 40.6 4.23581 40.6 5.76471V8.64706ZM49.3 8.64706H52.2C53.7383 8.64706 55.2135 9.25441 56.3012 10.3355C57.3889 11.4166 58 12.8829 58 14.4118V43.2353C58 44.7642 57.3889 46.2305 56.3012 47.3116C55.2135 48.3926 53.7383 49 52.2 49H49.3V8.64706ZM8.7 8.64706V49H5.8C4.26174 49 2.78649 48.3926 1.69878 47.3116C0.61107 46.2305 0 44.7642 0 43.2353V14.4118C0 11.2412 2.61 8.64706 5.8 8.64706H8.7ZM23.2 5.76471V8.64706H34.8V5.76471H23.2Z" fill="#688E67"/>
</svg>
