<svg width="74" height="62" viewBox="0 0 74 62" fill="none" xmlns="http://www.w3.org/2000/svg">
<path d="M29.2974 33.2176H35.179V25.0801H41.0606V33.2176H46.9422V19.2548L38.1198 13.4329L29.2939 19.2548L29.2974 33.2176ZM38.1198 62C29.9509 54.85 23.7981 48.1817 19.6615 41.9951C15.5226 35.8085 13.4531 30.1782 13.4531 25.1042C13.4531 17.8257 15.847 11.8226 20.6348 7.09495C25.4249 2.36498 31.2533 0 38.1198 0C44.9863 0 50.8146 2.36498 55.6048 7.09495C60.3926 11.8226 62.7865 17.8257 62.7865 25.1042C62.7865 30.1782 60.7182 35.8085 56.5816 41.9951C52.4426 48.1817 46.2887 54.85 38.1198 62Z" fill="#688E67"/>
</svg>
