<svg width="53" height="44" viewBox="0 0 53 44" fill="none" xmlns="http://www.w3.org/2000/svg">
<path d="M43.7679 6.28564H31.9414V43.9999H46.396V9.30279C46.396 8.50259 46.1191 7.73517 45.6262 7.16935C45.1333 6.60352 44.4649 6.28564 43.7679 6.28564ZM37.1976 31.9314H34.5695V28.9142H37.1976V31.9314ZM37.1976 24.3885H34.5695V21.3714H37.1976V24.3885ZM37.1976 16.8456H34.5695V13.8285H37.1976V16.8456ZM42.4538 31.9314H39.8257V28.9142H42.4538V31.9314ZM42.4538 24.3885H39.8257V21.3714H42.4538V24.3885ZM42.4538 16.8456H39.8257V13.8285H42.4538V16.8456Z" fill="#688E67"/>
<path d="M27.1411 0H9.43423C8.58765 0 7.77574 0.327589 7.17712 0.910703C6.57849 1.49382 6.24219 2.28469 6.24219 3.10933V44H13.7706V39.6H22.8047V44H30.3331V3.10933C30.3331 2.28469 29.9968 1.49382 29.3982 0.910703C28.7995 0.327589 27.9876 0 27.1411 0ZM13.7706 32.2667H10.7592V29.3333H13.7706V32.2667ZM13.7706 24.9333H10.7592V22H13.7706V24.9333ZM13.7706 17.6H10.7592V14.6667H13.7706V17.6ZM13.7706 10.2667H10.7592V7.33333H13.7706V10.2667ZM19.7933 32.2667H16.782V29.3333H19.7933V32.2667ZM19.7933 24.9333H16.782V22H19.7933V24.9333ZM19.7933 17.6H16.782V14.6667H19.7933V17.6ZM19.7933 10.2667H16.782V7.33333H19.7933V10.2667ZM25.8161 32.2667H22.8047V29.3333H25.8161V32.2667ZM25.8161 24.9333H22.8047V22H25.8161V24.9333ZM25.8161 17.6H22.8047V14.6667H25.8161V17.6ZM25.8161 10.2667H22.8047V7.33333H25.8161V10.2667Z" fill="#688E67"/>
</svg>
