<svg width="58" height="49" viewBox="0 0 58 49" fill="none" xmlns="http://www.w3.org/2000/svg">
<path d="M28 27C25.8783 27 23.8434 27.8429 22.3431 29.3431C20.8429 30.8434 20 32.8783 20 35C20 37.1217 20.8429 39.1566 22.3431 40.6569C23.8434 42.1571 25.8783 43 28 43C30.1217 43 32.1566 42.1571 33.6569 40.6569C35.1571 39.1566 36 37.1217 36 35C36 32.8783 35.1571 30.8434 33.6569 29.3431C32.1566 27.8429 30.1217 27 28 27ZM24.5714 35C24.5714 34.0907 24.9327 33.2186 25.5756 32.5756C26.2186 31.9327 27.0907 31.5714 28 31.5714C28.9093 31.5714 29.7814 31.9327 30.4244 32.5756C31.0673 33.2186 31.4286 34.0907 31.4286 35C31.4286 35.9093 31.0673 36.7814 30.4244 37.4244C29.7814 38.0673 28.9093 38.4286 28 38.4286C27.0907 38.4286 26.2186 38.0673 25.5756 37.4244C24.9327 36.7814 24.5714 35.9093 24.5714 35Z" fill="#688E67"/>
<path d="M41.394 10.2335L33.9763 0L6.702 21.4405L5.19 21.4244V21.4474H4V49H53V21.4474H50.7553L46.2893 8.59182L41.394 10.2335ZM45.825 21.4474H22.4263L39.854 15.6017L43.4053 14.4835L45.825 21.4474ZM36.7833 11.781L18.7933 17.8151L33.0407 6.61492L36.7833 11.781ZM8.66667 40.2038V30.239C9.65174 29.8969 10.5465 29.3421 11.2854 28.6155C12.0242 27.8888 12.5885 27.0086 12.9367 26.0395H44.0633C44.4112 27.0091 44.9753 27.8897 45.7142 28.6168C46.4531 29.3438 47.348 29.8989 48.3333 30.2413V40.2061C47.348 40.5485 46.4531 41.1035 45.7142 41.8306C44.9753 42.5577 44.4112 43.4383 44.0633 44.4079H12.9413C12.5918 43.4382 12.0266 42.5576 11.287 41.8303C10.5475 41.103 9.65227 40.5473 8.66667 40.2038Z" fill="#688E67"/>
</svg>
