<svg width="55" height="46" viewBox="0 0 55 46" fill="none" xmlns="http://www.w3.org/2000/svg">
<path d="M5.00021 17.634C4.99461 17.9945 5.10019 18.3481 5.30299 18.6481C5.50578 18.9481 5.79622 19.1803 6.13586 19.314L23.4703 26.1496L30.4051 43.2377C30.5391 43.5682 30.7705 43.8516 31.0695 44.0511C31.3685 44.2506 31.7213 44.3572 32.0824 44.3571H32.1113C32.477 44.3514 32.8323 44.2364 33.1302 44.0273C33.4281 43.8182 33.6545 43.5249 33.7796 43.1861L48.2234 4.03399C48.3416 3.71548 48.3651 3.3703 48.2909 3.0391C48.2168 2.7079 48.0482 2.40448 47.805 2.16456C47.5618 1.92464 47.2541 1.75822 46.9182 1.6849C46.5822 1.61158 46.232 1.63442 45.9088 1.75071L6.18822 15.9878C5.84425 16.1112 5.54644 16.3347 5.33428 16.6287C5.12211 16.9227 5.00561 17.2733 5.00021 17.634Z" fill="#688E67"/>
</svg>
